<svg xmlns="http://www.w3.org/2000/svg" viewBox="0 0 18.3 18.9">
  <path d="M13.4 6.2c.5 0 .9-.4.9-.9s-.4-.9-.9-.9-.9.4-.9.9.4.9.9.9zm-4.1-.7c-.8 0-1.6.2-2.2.7-.7.4-1.2 1-1.5 1.7-.3.7-.4 1.5-.2 2.3.2.8.5 1.5 1.1 2 .6.6 1.3.9 2 1.1.8.2 1.6.1 2.3-.2.7-.3 1.4-.8 1.8-1.5.4-.7.7-1.4.7-2.2 0-1.1-.4-2.1-1.2-2.8-.8-.7-1.8-1.1-2.8-1.1zm0 6.5c-.5 0-1-.2-1.4-.4-.4-.3-.8-.7-1-1.2-.2-.5-.2-1-.1-1.5s.3-1 .7-1.3c.3-.3.8-.6 1.3-.7.5-.1 1 0 1.5.1.5.2.9.5 1.2 1 .3.4.4.9.4 1.4 0 .7-.3 1.3-.8 1.8-.5.6-1.1.8-1.8.8z"/>
  <path d="M9.3 3.1h3.1c.5 0 1 .1 1.4.3.3.1.6.3.9.6s.5.6.6.9c.2.5.3.9.3 1.4v6.2c0 .5-.1 1-.3 1.4-.1.3-.3.6-.6.9-.3.3-.6.5-.9.6-.5.2-.9.3-1.4.3H6.2c-.5 0-1-.1-1.4-.3-.3-.1-.6-.3-.9-.6-.3-.3-.5-.6-.6-.9-.3-.3-.3-.8-.3-1.3V6.4c0-.5.1-1 .3-1.4 0-.5.2-.8.5-1 .3-.3.6-.5.9-.6.5-.2.9-.3 1.4-.3h3.2zm0-1.4H6.1c-.6 0-1.3.1-1.9.4-.5.2-1 .5-1.4.9-.4.4-.7.9-.9 1.4-.2.6-.3 1.2-.3 1.9v6.4c0 .6.1 1.3.4 1.9.2.5.5 1 .9 1.4.4.4.9.7 1.4.9.6.2 1.2.3 1.9.4h6.4c.6 0 1.3-.1 1.9-.4.5-.2 1-.5 1.4-.9.4-.4.7-.9.9-1.4.2-.6.3-1.2.4-1.9V6.3c0-.6-.1-1.3-.4-1.9-.2-.5-.5-1-.9-1.4-.4-.4-.9-.7-1.4-.9-.6-.2-1.2-.3-1.9-.4H9.3z"/>
</svg>