<svg width="18" height="19" viewBox="0 0 18 19" fill="none" xmlns="http://www.w3.org/2000/svg">
<path d="M13.8045 6.13266C14.4007 6.13266 14.884 5.64912 14.884 5.05266C14.884 4.45619 14.4007 3.97266 13.8045 3.97266C13.2084 3.97266 12.7251 4.45619 12.7251 5.05266C12.7251 5.64912 13.2084 6.13266 13.8045 6.13266Z" fill="#3361FF"/>
<path d="M9.0009 5.23584C8.08685 5.23584 7.19333 5.50689 6.43333 6.0147C5.67333 6.52252 5.08098 7.2443 4.73119 8.08877C4.3814 8.93324 4.28988 9.86247 4.4682 10.759C4.64652 11.6554 5.08667 12.4789 5.733 13.1252C6.37933 13.7716 7.2028 14.2117 8.09929 14.39C8.99577 14.5684 9.925 14.4768 10.7695 14.1271C11.6139 13.7773 12.3357 13.1849 12.8435 12.4249C13.3513 11.6649 13.6224 10.7714 13.6224 9.85734C13.6224 8.63164 13.1355 7.45615 12.2688 6.58945C11.4021 5.72275 10.2266 5.23584 9.0009 5.23584ZM9.0009 12.8573C8.40755 12.8573 7.82753 12.6814 7.33419 12.3518C6.84084 12.0221 6.45632 11.5536 6.22926 11.0054C6.00219 10.4572 5.94278 9.85401 6.05854 9.27207C6.1743 8.69013 6.46002 8.15558 6.87958 7.73602C7.29913 7.31646 7.83368 7.03074 8.41563 6.91498C8.99757 6.79923 9.60077 6.85864 10.1489 7.0857C10.6971 7.31276 11.1657 7.69728 11.4953 8.19063C11.8249 8.68398 12.0009 9.264 12.0009 9.85734C12.0009 10.653 11.6848 11.4161 11.1222 11.9787C10.5596 12.5413 9.79655 12.8573 9.0009 12.8573Z" fill="#3361FF"/>
<path d="M9 2.47868C11.403 2.47868 11.688 2.48768 12.6368 2.53118C13.2074 2.53795 13.7726 2.64273 14.3077 2.84093C14.696 2.9907 15.0486 3.22009 15.3428 3.51434C15.6371 3.80859 15.8665 4.16118 16.0163 4.54943C16.2145 5.08457 16.3192 5.6498 16.326 6.22043C16.3695 7.16918 16.3785 7.45418 16.3785 9.85793C16.3785 12.2617 16.3695 12.5452 16.326 13.4939C16.3192 14.0646 16.2145 14.6298 16.0163 15.1649C15.8665 15.5532 15.6371 15.9058 15.3428 16.2C15.0486 16.4943 14.696 16.7237 14.3077 16.8734C13.7726 17.0716 13.2074 17.1764 12.6368 17.1832C11.688 17.2267 11.403 17.2357 9 17.2357C6.597 17.2357 6.312 17.2267 5.36325 17.1832C4.79262 17.1764 4.2274 17.0716 3.69225 16.8734C3.304 16.7237 2.95141 16.4943 2.65716 16.2C2.36291 15.9058 2.13352 15.5532 1.98375 15.1649C1.78555 14.6298 1.68077 14.0646 1.674 13.4939C1.6305 12.5452 1.6215 12.2602 1.6215 9.85718C1.6215 7.45418 1.6305 7.16918 1.674 6.22043C1.68077 5.6498 1.78555 5.08457 1.98375 4.54943C2.13352 4.16118 2.36291 3.80859 2.65716 3.51434C2.95141 3.22009 3.304 2.9907 3.69225 2.84093C4.2274 2.64273 4.79262 2.53795 5.36325 2.53118C6.312 2.48768 6.597 2.47868 9 2.47868ZM9 0.857178C6.55575 0.857178 6.249 0.867678 5.289 0.911178C4.54258 0.92625 3.80412 1.06775 3.105 1.32968C2.50704 1.5609 1.96399 1.91451 1.51066 2.36784C1.05733 2.82117 0.703723 3.36422 0.4725 3.96218C0.210494 4.66153 0.0689875 5.40026 0.054 6.14693C0.0105 7.10693 0 7.41218 0 9.85718C0 12.3022 0.0105 12.6082 0.054 13.5682C0.0690721 14.3146 0.210577 15.0531 0.4725 15.7522C0.703723 16.3501 1.05733 16.8932 1.51066 17.3465C1.96399 17.7998 2.50704 18.1535 3.105 18.3847C3.80435 18.6467 4.54308 18.7882 5.28975 18.8032C6.24975 18.8467 6.55575 18.8572 9 18.8572C11.4443 18.8572 11.751 18.8467 12.711 18.8032C13.4577 18.7882 14.1964 18.6467 14.8958 18.3847C15.4937 18.1535 16.0368 17.7998 16.4901 17.3465C16.9434 16.8932 17.297 16.3501 17.5282 15.7522C17.79 15.0528 17.9313 14.3141 17.946 13.5674C17.9895 12.6074 18 12.3022 18 9.85718C18 7.41218 17.9895 7.10618 17.946 6.14618C17.9309 5.39976 17.7894 4.6613 17.5275 3.96218C17.2963 3.36422 16.9427 2.82117 16.4893 2.36784C16.036 1.91451 15.493 1.5609 14.895 1.32968C14.1956 1.06793 13.4569 0.926675 12.7103 0.911928C11.7503 0.866928 11.445 0.857178 9 0.857178Z" fill="#3361FF"/>
</svg>
