<svg width="14" height="14" viewBox="0 0 14 14" fill="none" xmlns="http://www.w3.org/2000/svg">
<path d="M8.02953 5.9707C7.48346 5.42486 6.74297 5.11823 5.97087 5.11823C5.19877 5.11823 4.45827 5.42486 3.9122 5.9707L1.85287 8.02937C1.30678 8.57545 1 9.31609 1 10.0884C1 10.8606 1.30678 11.6013 1.85287 12.1474C2.39895 12.6934 3.13959 13.0002 3.91187 13.0002C4.68414 13.0002 5.42478 12.6934 5.97087 12.1474L7.0002 11.118" stroke-width="1.5" stroke-linecap="round" stroke-linejoin="round"/>
<path d="M5.9707 8.02935C6.51677 8.57519 7.25727 8.88183 8.02937 8.88183C8.80147 8.88183 9.54197 8.57519 10.088 8.02935L12.1474 5.97068C12.6935 5.4246 13.0002 4.68396 13.0002 3.91168C13.0002 3.13941 12.6935 2.39876 12.1474 1.85268C11.6013 1.3066 10.8606 0.999817 10.0884 0.999817C9.31609 0.999817 8.57545 1.3066 8.02937 1.85268L7.00004 2.88202" stroke-width="1.5" stroke-linecap="round" stroke-linejoin="round"/>
</svg>
