<svg width="16" height="14" viewBox="0 0 16 14"  xmlns="http://www.w3.org/2000/svg">
<path d="M5.38125 13.4646C6.56893 13.4721 7.74627 13.2437 8.84498 12.7926C9.9437 12.3415 10.9419 11.6768 11.7818 10.837C12.6216 9.99715 13.2863 8.99893 13.7374 7.90022C14.1884 6.8015 14.4168 5.62416 14.4094 4.43648V4.02164C15.025 3.57058 15.5579 3.01629 15.9844 2.38336C15.4047 2.6369 14.7912 2.80506 14.1633 2.88258C14.8291 2.48586 15.3286 1.86141 15.5695 1.12476C14.949 1.49703 14.2686 1.75873 13.5586 1.8982C13.0804 1.38869 12.4477 1.05097 11.7582 0.9373C11.0688 0.823626 10.3611 0.940333 9.74466 1.26936C9.12823 1.59839 8.63741 2.12141 8.34816 2.75747C8.05891 3.39354 7.98734 4.10721 8.14453 4.78805C6.88314 4.72613 5.64894 4.39923 4.52228 3.82863C3.39563 3.25804 2.40178 2.45654 1.60547 1.47633C1.20393 2.17325 1.08222 2.99671 1.26499 3.77999C1.44775 4.56327 1.92133 5.24783 2.58984 5.69508C2.09668 5.67606 1.61493 5.54116 1.18359 5.30133V5.33648C1.17921 6.0648 1.42457 6.77263 1.87878 7.34198C2.33298 7.91134 2.9686 8.30784 3.67969 8.46539C3.221 8.58876 2.74052 8.60798 2.27344 8.52164C2.4793 9.14277 2.87228 9.68501 3.39847 10.074C3.92466 10.463 4.55831 10.6796 5.2125 10.6943C4.09398 11.5947 2.70381 12.0903 1.26797 12.1005C1.01622 12.0933 0.765057 12.0721 0.515625 12.0373C1.96895 12.9632 3.65803 13.4514 5.38125 13.4435" />
</svg>
