<svg width="18" height="15" viewBox="0 0 18 15" fill="none" xmlns="http://www.w3.org/2000/svg">
<path d="M5.66182 14.9998C7.04384 15.0087 8.41384 14.7361 9.69234 14.1979C10.9708 13.6596 12.1324 12.8664 13.1097 11.8642C14.0869 10.862 14.8604 9.67074 15.3853 8.35961C15.9102 7.04847 16.176 5.64351 16.1673 4.22622V3.73117C16.8837 3.1929 17.5037 2.53146 18 1.77616C17.3254 2.07872 16.6116 2.27938 15.8809 2.37189C16.6557 1.89848 17.237 1.15329 17.5173 0.274234C16.7952 0.718468 16.0035 1.03076 15.1773 1.1972C14.6209 0.58919 13.8845 0.186179 13.0823 0.0505278C12.28 -0.0851233 11.4565 0.0541472 10.7392 0.44679C10.0219 0.839434 9.45081 1.46356 9.11422 2.2226C8.77764 2.98164 8.69436 3.83328 8.87727 4.64575C7.40948 4.57187 5.97331 4.18177 4.66229 3.50086C3.35127 2.81994 2.1948 1.86349 1.26818 0.693765C0.800937 1.52542 0.659313 2.50809 0.871985 3.44281C1.08466 4.37752 1.63573 5.19443 2.41364 5.72814C1.83977 5.70545 1.27919 5.54448 0.777273 5.25827V5.30022C0.772173 6.16935 1.05768 7.01402 1.58621 7.69345C2.11474 8.37289 2.85437 8.84604 3.68182 9.03405C3.14807 9.18127 2.58897 9.20421 2.04545 9.10118C2.28501 9.84239 2.74229 10.4895 3.35458 10.9536C3.96688 11.4178 4.70421 11.6764 5.46545 11.6939C4.1639 12.7683 2.54626 13.3597 0.875455 13.372C0.582507 13.3633 0.290248 13.3381 0 13.2965C1.69115 14.4014 3.65662 14.984 5.66182 14.9746" fill="#3361FF"/>
</svg>
