<svg width="21" height="15" viewBox="0 0 21 15" fill="none" xmlns="http://www.w3.org/2000/svg">
<path d="M20.8651 3.31202C20.8651 1.55425 19.5073 0.14023 17.8295 0.14023C15.557 0.0390613 13.2393 0 10.8708 0H10.1324C7.76959 0 5.44781 0.0390614 3.17526 0.140621C1.50161 0.140621 0.143822 1.56246 0.143822 3.32022C0.0412703 4.71042 -0.0022118 6.10101 0.000249451 7.49159C-0.00385263 8.88218 0.0426376 10.2741 0.13972 11.6673C0.13972 13.425 1.49751 14.8508 3.17116 14.8508C5.55857 14.9562 8.00751 15.0031 10.4975 14.9992C12.9915 15.007 15.4336 14.9575 17.8238 14.8508C19.5015 14.8508 20.8593 13.425 20.8593 11.6673C20.9578 10.2728 21.0029 8.88218 20.9988 7.48769C21.0081 6.0971 20.9635 4.70521 20.8651 3.31202ZM8.49156 11.3235V3.64795L14.4396 7.48378L8.49156 11.3235Z" fill="#3361FF"/>
</svg>
