<svg width="198" height="34" viewBox="0 0 198 34" fill="none" xmlns="http://www.w3.org/2000/svg">
<path d="M46.2358 24.9674H47.9817L49.9051 19.8778H58.8712L60.7354 24.9674H62.5997L55.4978 5.99963H53.3081L46.2358 24.9674ZM50.4378 18.3983L52.6571 12.5392C53.5744 10.1128 54.4621 7.68631 54.4621 7.68631L56.1784 12.5096L58.3386 18.3983H50.4378Z" fill="white"/>
<path d="M67.0723 24.9674V5.99963H65.2968V24.9674H67.0723Z" fill="white"/>
<path d="M76.7515 24.9674H78.4974L80.4208 19.8778H89.3869L91.2511 24.9674H93.1154L86.0135 5.99963H83.8238L76.7515 24.9674ZM80.9535 18.3983L83.1728 12.5392C84.0901 10.1128 84.9778 7.68631 84.9778 7.68631L86.6941 12.5096L88.8543 18.3983H80.9535Z" fill="white"/>
<path d="M99.8073 25.3225C102.855 25.3225 104.779 23.843 104.779 21.4757C104.779 19.8186 103.832 18.4574 101.672 17.9544L99.0084 17.3626C98.1798 17.185 96.8482 16.8299 96.8482 15.2912C96.8482 13.8412 97.9727 13.0719 99.7481 13.0719C101.553 13.0719 102.826 13.9596 102.885 15.5871H104.512C104.453 13.279 102.559 11.7107 99.7481 11.7107C96.9962 11.7107 95.1319 13.1902 95.1319 15.4096C95.1319 17.0075 96.0197 18.3095 98.2686 18.8125L100.665 19.3452C101.642 19.5227 103.033 19.9666 103.033 21.5941C103.033 23.1032 101.819 23.9614 99.8073 23.9614C97.8839 23.9614 96.5227 23.0736 96.4043 21.5053H94.7768C94.8952 23.8134 96.9074 25.3225 99.8073 25.3225Z" fill="white"/>
<path d="M112.407 25.3225C115.454 25.3225 117.378 23.843 117.378 21.4757C117.378 19.8186 116.431 18.4574 114.271 17.9544L111.608 17.3626C110.779 17.185 109.447 16.8299 109.447 15.2912C109.447 13.8412 110.572 13.0719 112.347 13.0719C114.152 13.0719 115.425 13.9596 115.484 15.5871H117.112C117.052 13.279 115.159 11.7107 112.347 11.7107C109.595 11.7107 107.731 13.1902 107.731 15.4096C107.731 17.0075 108.619 18.3095 110.868 18.8125L113.265 19.3452C114.241 19.5227 115.632 19.9666 115.632 21.5941C115.632 23.1032 114.419 23.9614 112.407 23.9614C110.483 23.9614 109.122 23.0736 109.004 21.5053H107.376C107.494 23.8134 109.507 25.3225 112.407 25.3225Z" fill="white"/>
<path d="M121.869 8.27814C122.727 8.27814 123.26 7.65672 123.26 6.88736C123.26 6.11799 122.727 5.49658 121.869 5.49658C121.07 5.49658 120.478 6.11799 120.478 6.88736C120.478 7.68631 121.07 8.27814 121.869 8.27814ZM121.041 24.9674H122.727V12.0658H121.041V24.9674Z" fill="white"/>
<path d="M131.248 25.3225C134.296 25.3225 136.219 23.843 136.219 21.4757C136.219 19.8186 135.272 18.4574 133.112 17.9544L130.449 17.3626C129.62 17.185 128.289 16.8299 128.289 15.2912C128.289 13.8412 129.413 13.0719 131.189 13.0719C132.994 13.0719 134.266 13.9596 134.325 15.5871H135.953C135.894 13.279 134 11.7107 131.189 11.7107C128.437 11.7107 126.572 13.1902 126.572 15.4096C126.572 17.0075 127.46 18.3095 129.709 18.8125L132.106 19.3452C133.082 19.5227 134.473 19.9666 134.473 21.5941C134.473 23.1032 133.26 23.9614 131.248 23.9614C129.324 23.9614 127.963 23.0736 127.845 21.5053H126.217C126.336 23.8134 128.348 25.3225 131.248 25.3225Z" fill="white"/>
<path d="M145.208 12.0658H142.604V8.60364H140.917V12.0658H138.343V13.4566H140.917V24.9674H142.604V13.4566H145.208V12.0658Z" fill="white"/>
<path d="M158.593 12.0658L158.445 14.6698C157.646 12.8647 155.693 11.7107 153.266 11.7107C149.656 11.7107 147.052 14.4035 147.052 18.5166C147.052 22.6298 149.597 25.3225 153.178 25.3225C155.693 25.3225 157.616 24.0205 158.415 22.2451V24.9674H159.984V12.0658H158.593ZM153.474 23.8134C150.662 23.8134 148.769 21.7124 148.769 18.5166C148.769 15.38 150.633 13.2198 153.533 13.2198C156.344 13.2198 158.208 15.232 158.208 18.4278C158.208 21.7124 156.314 23.8134 153.474 23.8134Z" fill="white"/>
<path d="M170.391 11.7107C168.586 11.7107 166.84 12.628 166.041 14.078L165.804 12.0658H164.414V24.9379H166.1V17.0962C166.1 14.9065 167.669 13.2198 170.125 13.2198C172.137 13.2198 173.498 14.3443 173.498 17.3626V24.9674H175.185V17.0075C175.185 13.4566 173.173 11.7107 170.391 11.7107Z" fill="white"/>
<path d="M185 12.0658H182.396V8.60364H180.709V12.0658H178.135V13.4566H180.709V24.9674H182.396V13.4566H185V12.0658Z" fill="white"/>
<path d="M192.42 25.3601C189.48 25.3601 187.44 23.8301 187.32 21.4901H188.97C189.09 23.0801 190.47 23.9801 192.42 23.9801C194.46 23.9801 195.69 23.1101 195.69 21.5801C195.69 19.9301 194.28 19.4801 193.29 19.3001L190.86 18.7601C188.58 18.2501 187.68 16.9301 187.68 15.3101C187.68 13.0601 189.57 11.5601 192.36 11.5601C195.21 11.5601 197.13 13.1501 197.19 15.4901H195.54C195.48 13.8401 194.19 12.9401 192.36 12.9401C190.56 12.9401 189.42 13.7201 189.42 15.1901C189.42 16.7501 190.77 17.1101 191.61 17.2901L194.31 17.8901C196.5 18.4001 197.46 19.7801 197.46 21.4601C197.46 23.8601 195.51 25.3601 192.42 25.3601Z" fill="white"/>
<path d="M4.16854 20.8036C6.47043 20.8036 8.33693 18.9415 8.33693 16.6449C8.33693 12.0518 12.0699 8.31724 16.674 8.31724H29.1898C31.4918 8.31724 33.3583 6.45527 33.3583 4.15869C33.3583 1.86198 31.5022 0 29.2003 0H16.6843C14.4031 0 12.5469 1.83094 12.5158 4.10692V4.21032C12.4847 8.78274 8.76215 12.4862 4.16854 12.4862C1.8665 12.4862 0 14.3485 0 16.6449C0 18.9414 1.8665 20.8036 4.16854 20.8036ZM29.2003 12.4862C26.8982 12.4862 25.0317 14.3483 25.0317 16.6449C25.0317 21.2381 21.3091 24.9622 16.7051 24.9726H4.16854C1.8665 24.9726 0 26.8346 0 29.1312C0 31.4277 1.8665 33.2899 4.16854 33.2899H16.6843C18.9864 33.2899 20.8529 31.4277 20.8529 29.1312C20.8529 24.538 24.5859 20.8036 29.1898 20.8036C31.4918 20.8036 33.3583 18.9415 33.3583 16.6449C33.3583 14.3483 31.4918 12.4862 29.1898 12.4862H29.2003Z" fill="white"/>
</svg>
