<svg width="443" height="73" viewBox="0 0 443 73" fill="none" xmlns="http://www.w3.org/2000/svg">
<g clip-path="url(#clip0_127_42)">
<path d="M100.703 18.7065H110.522L121.483 46.3097L132.443 18.7065H141.806V55.4347H134.727V30.3409L124.451 55.4347H118.057L107.781 30.3409V55.4347H100.703V18.7065Z" fill="#fff"/>
<path d="M155.507 56.5753L144.318 28.5159H151.625L159.16 48.3627L166.468 28.5159H173.775L158.932 65.9284H151.625L155.507 56.5753Z" fill="#fff"/>
<path d="M173.775 49.0472L191.586 25.094H173.775V18.7065H200.492V25.094L182.681 49.0472H200.492V55.4347H173.775V49.0472Z" fill="#fff"/>
<path d="M210.539 47.4503C211.909 48.8191 213.736 49.7316 215.791 49.7316C217.847 49.7316 219.673 49.0472 221.043 47.4503C222.414 45.8534 223.099 44.0284 223.099 41.9753C223.099 39.6941 222.414 37.869 221.043 36.5003C219.673 35.1315 217.847 34.219 215.791 34.219C213.736 34.219 211.909 34.9034 210.539 36.5003C209.169 38.0972 208.484 39.9222 208.484 41.9753C208.484 44.2566 209.169 46.0816 210.539 47.4503ZM205.516 31.9378C208.256 29.2003 211.681 27.8315 215.791 27.8315C219.902 27.8315 223.327 29.2003 226.067 31.9378C228.807 34.6753 230.177 37.8691 230.177 41.9753C230.177 45.8534 228.807 49.2753 226.067 52.0128C223.327 54.7503 219.902 56.119 215.791 56.119C211.681 56.119 208.256 54.7503 205.516 52.0128C202.775 49.2753 201.405 46.0816 201.405 41.9753C201.405 38.0972 202.775 34.6753 205.516 31.9378Z" fill="#fff"/>
<path d="M233.831 28.5158H240.682V32.1658C242.737 29.4283 245.477 28.0596 249.131 28.0596C252.328 28.0596 255.068 29.2002 257.123 31.2533C259.178 33.3064 260.091 36.0439 260.091 39.2377V55.6627H253.241V40.6064C253.241 38.7814 252.556 37.4127 251.414 36.0439C250.272 34.9033 248.674 34.2189 246.847 34.2189C245.02 34.2189 243.422 34.9033 242.28 36.0439C241.138 37.1846 240.453 38.7814 240.453 40.6064V55.6627H233.603V28.5158H233.831Z" fill="#fff"/>
<path d="M284.753 39.2378C284.297 37.6409 283.383 36.2722 282.241 35.3597C280.871 34.4472 279.501 33.7628 277.674 33.7628C275.848 33.7628 274.477 34.219 273.107 35.3597C271.737 36.2722 271.052 37.6409 270.596 39.2378H284.753ZM267.627 31.9378C270.367 29.2003 273.792 27.8315 277.674 27.8315C282.241 27.8315 285.667 29.4284 288.407 32.6222C291.147 35.8159 292.289 39.6941 291.604 44.2566H270.596C271.052 45.8534 271.966 47.2222 273.107 48.3628C274.477 49.5034 276.076 49.9597 278.131 49.9597C279.73 49.9597 281.1 49.5034 282.241 48.8191C283.383 48.1347 284.297 47.2222 285.21 45.8534L290.919 48.3628C289.777 50.644 287.95 52.2409 285.667 53.6097C283.383 54.9784 280.871 55.6628 278.131 55.6628C274.021 55.6628 270.596 54.294 267.855 51.5565C265.115 48.819 263.745 45.6253 263.745 41.519C263.517 38.0972 264.887 34.6753 267.627 31.9378Z" fill="#fff"/>
<path d="M8.67737 46.3096C13.7011 46.3096 17.8114 42.2033 17.8114 37.1846C17.8114 27.1471 26.032 18.9346 36.0794 18.9346H63.9382C68.9619 18.9346 73.0722 14.8283 73.0722 9.80958C73.0722 4.79083 68.9619 0.68457 63.9382 0.68457H36.5361C31.5124 0.68457 27.4021 4.79083 27.4021 9.80958C27.4021 9.80958 27.4021 9.80958 27.4021 10.0377C27.4021 10.0377 27.4021 10.0377 27.4021 10.2658C27.4021 20.3033 19.1815 28.5158 9.13408 28.5158C4.11037 28.5158 5.56022e-05 32.6221 5.56022e-05 37.6408C-0.456645 42.2033 3.65366 46.3096 8.67737 46.3096Z" fill="#fff"/>
<path d="M63.9381 28.0596C58.9144 28.0596 54.8041 32.1658 54.8041 37.1846C54.8041 47.2221 46.5835 55.4346 36.5361 55.4346H9.13402C4.11031 55.4346 0 59.5408 0 64.5596C0 69.5783 4.11031 73.6846 9.13402 73.6846H36.5361C41.5598 73.6846 45.6701 69.5783 45.6701 64.5596C45.6701 54.5221 53.8907 46.3096 63.9381 46.3096C68.9619 46.3096 73.0722 42.2033 73.0722 37.1846C73.0722 32.1658 68.9619 28.0596 63.9381 28.0596Z" fill="#fff"/>
<path d="M326.998 18.9346H331.108L344.809 55.4346H341.156L337.502 45.6252H320.147L316.494 55.4346H313.069L326.998 18.9346ZM336.817 42.8877L332.707 31.4814L329.281 22.1283C329.281 22.1283 327.455 26.6908 325.856 31.4814L321.518 42.6596H336.817V42.8877Z" fill="#fff"/>
<path d="M349.148 55.4346V18.9346H352.573V55.4346H349.148Z" fill="#fff"/>
<path d="M398.015 30.3409C398.015 36.7284 393.676 41.7472 386.597 41.7472H376.093V55.2065H372.668V18.7065H386.597C393.676 18.9347 398.015 23.4972 398.015 30.3409ZM394.59 30.3409C394.59 25.3222 391.393 22.1284 386.369 22.1284H376.322V38.7815H386.141C391.393 38.7815 394.59 35.1316 394.59 30.3409Z" fill="#fff"/>
<path d="M414.913 30.5689V33.3064C409.204 32.3939 405.779 35.5877 405.779 41.0627V55.4346H402.582V30.5689H405.322L405.779 34.6752C406.692 31.9377 409.204 30.3408 412.401 30.3408C413.543 30.3408 414.456 30.3408 414.913 30.5689Z" fill="#fff"/>
<path d="M430.212 29.8848C437.976 29.8848 443.457 35.816 443.457 43.116C443.457 50.416 437.976 56.1191 430.212 56.1191C422.448 56.1191 416.968 50.416 416.968 43.116C416.968 35.816 422.448 29.8848 430.212 29.8848ZM430.212 53.1535C435.921 53.1535 440.031 48.8191 440.031 43.116C440.031 37.4129 435.921 32.8504 430.212 32.8504C424.504 32.8504 420.393 37.1848 420.393 43.116C420.393 48.8191 424.275 53.1535 430.212 53.1535Z" fill="#fff"/>
</g>
<defs>
<clipPath id="clip0_127_42">
<rect width="443" height="73" fill="white"/>
</clipPath>
</defs>
</svg>
