<svg width="58" height="57" viewBox="0 0 58 57" fill="none" xmlns="http://www.w3.org/2000/svg">
<g clip-path="url(#clip0_33_243)">
<path d="M29.0066 56.2904C44.6562 56.2904 57.3428 47.2502 57.3428 36.0987C57.3428 24.9471 44.6562 15.907 29.0066 15.907C13.357 15.907 0.67041 24.9471 0.67041 36.0987C0.67041 47.2502 13.357 56.2904 29.0066 56.2904Z" fill="#3361FF"/>
<path d="M28.9933 57C13.0081 57 0 47.6272 0 36.1121C0 24.5969 13.0081 15.2241 28.9933 15.2241C44.9785 15.2241 57.9866 24.5969 57.9866 36.1121C57.9866 47.6272 44.9785 57 28.9933 57ZM28.9933 16.6167C13.7323 16.6167 1.31422 25.3601 1.31422 36.0987C1.31422 46.8372 13.7323 55.5941 28.9933 55.5941C44.2543 55.5941 56.6724 46.8506 56.6724 36.0987C56.6724 25.3467 44.2543 16.6033 28.9933 16.6033V16.6167Z" fill="#374050"/>
<path d="M40.325 12.5327H17.9564C13.8394 12.5327 10.5002 16.0676 10.5002 20.4326V46.4622L19.512 40.9457H40.325C44.442 40.9457 47.7812 37.4108 47.7812 33.0458V20.446C47.7812 16.081 44.442 12.5461 40.325 12.5461V12.5327Z" fill="white"/>
<path d="M9.82983 47.694V20.446C9.82983 15.6926 13.4775 11.823 17.9565 11.823H40.3251C44.8042 11.823 48.4518 15.6926 48.4518 20.446V33.0457C48.4518 37.799 44.8042 41.6687 40.3251 41.6687H19.6865L9.82983 47.7074V47.694ZM17.9565 13.2423C14.215 13.2423 11.1709 16.4692 11.1709 20.4326V45.2303L19.3244 40.236H40.3251C44.0666 40.236 47.1108 37.009 47.1108 33.0457V20.446C47.1108 16.4826 44.0666 13.2557 40.3251 13.2557H17.9565V13.2423Z" fill="#374050"/>
<path d="M10.4332 32.3361C7.21466 32.3361 4.61304 29.7385 4.61304 26.525C4.61304 23.3115 7.21466 20.7139 10.4332 20.7139V32.3495V32.3361Z" fill="white"/>
<path d="M11.1038 33.0057H10.4333C6.85268 33.0057 3.94263 30.1001 3.94263 26.5251C3.94263 22.95 6.85268 20.0444 10.4333 20.0444H11.1038V33.0191V33.0057ZM9.76274 21.4102C7.24159 21.7449 5.28367 23.9007 5.28367 26.5117C5.28367 29.1227 7.24159 31.2918 9.76274 31.6131V21.4102Z" fill="#374050"/>
<path d="M47.8347 20.7673C51.0532 20.7673 53.6548 23.3649 53.6548 26.5784C53.6548 29.792 51.0532 32.3896 47.8347 32.3896V20.7539V20.7673Z" fill="white"/>
<path d="M47.8348 33.0725H47.1643V20.0979H47.8348C51.4154 20.0979 54.3255 23.0035 54.3255 26.5785C54.3255 30.1536 51.4154 33.0591 47.8348 33.0591V33.0725ZM48.5053 21.477V31.68C51.0265 31.3453 52.9844 29.1895 52.9844 26.5785C52.9844 23.9675 51.0265 21.7984 48.5053 21.477Z" fill="#374050"/>
<path d="M33.3652 12.399L33.3249 11.7697C33.3249 11.6759 33.3115 11.609 33.3115 11.542C33.3115 9.76122 34.7598 8.31513 36.5434 8.31513C38.9841 8.31513 40.9823 6.33345 41.0091 3.89652C41.0359 2.07552 42.4842 0.642822 44.241 0.642822H51.9386C53.7222 0.642822 55.1705 2.08891 55.1705 3.86974C55.1705 5.65057 53.7222 7.09666 51.9386 7.09666H44.241C41.7869 7.09666 39.7887 9.09173 39.7887 11.542V11.7429L39.6949 12.3187L39.1048 12.399H33.392H33.3652Z" fill="white"/>
<path d="M51.925 1.33897C53.3331 1.33897 54.4864 2.4771 54.4864 3.89641C54.4864 5.31572 53.3331 6.45384 51.925 6.45384H44.2275C41.3979 6.45384 39.1047 8.74348 39.1047 11.5687C39.1047 11.6357 39.0913 11.6892 39.0913 11.7562H34.0087C34.0087 11.7562 33.9953 11.6357 33.9953 11.5687C33.9953 10.1628 35.1486 9.01128 36.5567 9.01128C39.3863 9.01128 41.6661 6.73502 41.6929 3.93658V3.86963C41.7063 2.4771 42.8462 1.35236 44.2543 1.35236H51.9519M51.9519 0.0133897H44.2543C42.1355 0.0133897 40.3787 1.74066 40.3519 3.85624V3.93658C40.3385 5.99859 38.6353 7.6723 36.5567 7.6723C34.4781 7.6723 32.6543 9.41297 32.6543 11.5687C32.6543 11.6624 32.6543 11.7696 32.6811 11.8633L32.775 13.1085H34.0222L39.1047 13.0951H40.3519L40.4457 11.8499C40.4457 11.7696 40.4726 11.6758 40.4726 11.5687C40.4726 9.49331 42.1757 7.79281 44.2543 7.79281H51.9519C54.0975 7.79281 55.8543 6.05215 55.8543 3.89641C55.8543 1.74066 54.1109 0 51.9519 0V0.0133897Z" fill="#374050"/>
<path d="M18.1441 12.3988L18.1039 11.7695C18.1039 11.6758 18.0905 11.6088 18.0905 11.5419C18.0905 9.09156 16.0923 7.09649 13.6382 7.09649H5.94065C4.15706 7.09649 2.70874 5.65041 2.70874 3.86957C2.70874 2.08874 4.15706 0.669434 5.94065 0.669434H13.6382C15.395 0.669434 16.8433 2.10213 16.8701 3.85618C16.8835 6.36006 18.8817 8.34174 21.3358 8.34174C23.1194 8.34174 24.5677 9.78783 24.5677 11.5687V11.7695L24.4738 12.3453L23.8838 12.4122H18.1709L18.1441 12.3988Z" fill="white"/>
<path d="M13.6249 1.33893C15.033 1.33893 16.1729 2.46367 16.1863 3.8562V3.92315C16.1997 6.73499 18.4929 8.99785 21.3225 8.99785C22.744 8.99785 23.8839 10.136 23.8839 11.5553C23.8839 11.6222 23.8705 11.6758 23.8705 11.7427H18.7879C18.7879 11.7427 18.7745 11.6222 18.7745 11.5553C18.7745 8.74344 16.4813 6.44041 13.6517 6.44041H5.95417C4.54608 6.44041 3.39278 5.30229 3.39278 3.88298C3.39278 2.46367 4.53267 1.32554 5.95417 1.32554H13.6517M13.6517 -0.0134277H5.95417C3.78168 -3.8024e-05 2.03833 1.74062 2.03833 3.89637C2.03833 6.05211 3.79509 7.79277 5.94076 7.79277H13.6383C15.7304 7.79277 17.4201 9.47988 17.4201 11.5687C17.4201 11.6624 17.4201 11.7695 17.4469 11.8632L17.5408 13.1085H18.7879H23.8705H25.1176L25.2115 11.8632C25.2115 11.7829 25.2383 11.6892 25.2383 11.5821C25.2383 9.43971 23.4816 7.68566 21.3359 7.68566C19.1902 7.68566 17.5542 5.99855 17.5408 3.93654V3.86959C17.5139 1.75401 15.7572 0.0267414 13.6383 0.0267414L13.6517 -0.0134277Z" fill="#374050"/>
<path d="M37.9246 18.0359H20.3704C17.8893 18.0359 15.8779 20.0441 15.8779 22.5214V31.2114C15.8779 33.6887 17.8893 35.6969 20.3704 35.6969H37.9246C40.4058 35.6969 42.4171 33.6887 42.4171 31.2114V22.5214C42.4171 20.0441 40.4058 18.0359 37.9246 18.0359Z" fill="white"/>
<path d="M37.9247 36.3664H20.3705C17.5275 36.3664 15.2075 34.05 15.2075 31.2114V22.5081C15.2075 19.6694 17.5275 17.353 20.3705 17.353H37.9247C40.7678 17.353 43.0878 19.6694 43.0878 22.5081V31.2114C43.0878 34.05 40.7678 36.3664 37.9247 36.3664ZM20.3705 18.7054C18.2651 18.7054 16.5486 20.4193 16.5486 22.5215V31.2248C16.5486 33.327 18.2651 35.0408 20.3705 35.0408H37.9247C40.0302 35.0408 41.7467 33.327 41.7467 31.2248V22.5215C41.7467 20.4193 40.0302 18.7054 37.9247 18.7054H20.3705Z" fill="#374050"/>
<path d="M33.4055 28.5066C33.4055 30.8632 31.5012 32.7645 29.141 32.7645C26.7807 32.7645 24.8765 30.8632 24.8765 28.5066H33.4055Z" fill="#374050"/>
<path d="M23.4415 26.1233C24.7746 26.1233 25.8553 25.0442 25.8553 23.7131C25.8553 22.382 24.7746 21.303 23.4415 21.303C22.1083 21.303 21.0276 22.382 21.0276 23.7131C21.0276 25.0442 22.1083 26.1233 23.4415 26.1233Z" fill="#374050"/>
<path d="M34.5586 26.1233C35.8918 26.1233 36.9725 25.0442 36.9725 23.7131C36.9725 22.382 35.8918 21.303 34.5586 21.303C33.2255 21.303 32.1448 22.382 32.1448 23.7131C32.1448 25.0442 33.2255 26.1233 34.5586 26.1233Z" fill="#374050"/>
<path d="M37.5895 44.9492H20.4108C17.8762 44.9492 15.811 46.9978 15.811 49.5419V53.7998C19.7403 55.179 24.2059 55.9556 28.9532 55.9556C33.7005 55.9556 38.2198 55.1656 42.1759 53.773V49.5419C42.1759 47.0112 40.1241 44.9492 37.5761 44.9492H37.5895Z" fill="white"/>
<path d="M28.9531 56.6117C24.2595 56.6117 19.767 55.8752 15.5964 54.4158L15.1538 54.2551V49.5285C15.1538 46.6229 17.514 44.2664 20.4241 44.2664H37.5894C40.4995 44.2664 42.8597 46.6229 42.8597 49.5285V54.2283L42.4172 54.389C38.2868 55.8485 33.6333 56.6117 28.9665 56.6117H28.9531ZM16.4814 53.3044C20.3839 54.6166 24.5813 55.2727 28.9531 55.2727C33.3249 55.2727 37.6296 54.5898 41.5053 53.2776V49.5285C41.5053 47.3728 39.7485 45.6053 37.576 45.6053H20.4107C18.2516 45.6053 16.4814 47.3594 16.4814 49.5285V53.3044Z" fill="#374050"/>
</g>
<defs>
<clipPath id="clip0_33_243">
<rect width="58" height="57" fill="white"/>
</clipPath>
</defs>
</svg>
