<svg width="242" height="35" viewBox="0 0 242 35" fill="none" xmlns="http://www.w3.org/2000/svg">
<path d="M46.0508 8.46842H50.5207L55.5105 21.2766L60.3962 8.46842H64.7622V25.5107H61.5397V13.8669L56.8618 25.5107H53.8472L49.2734 13.8669V25.5107H46.0508V8.46842Z" fill="#383851"/>
<path d="M70.9994 26.0398L65.9058 13.0199H69.2322L72.6626 22.2291L75.9891 13.0199H79.3155L72.5586 30.3798H69.2322L70.9994 26.0398Z" fill="#383851"/>
<path d="M79.3154 22.5468L87.4237 11.5382H79.3154V8.46842H91.3739V11.5382L83.3696 22.5468H91.3739V25.5107H79.3154V22.5468Z" fill="#383851"/>
<path d="M96.0516 21.9116C96.6753 22.6524 97.5069 22.97 98.4424 22.97C99.3781 22.97 100.21 22.6524 100.833 21.9116C101.457 21.1706 101.769 20.3237 101.769 19.371C101.769 18.3126 101.457 17.4657 100.833 16.8306C100.21 16.1955 99.3781 15.772 98.4424 15.772C97.5069 15.772 96.6753 16.0896 96.0516 16.8306C95.4279 17.5716 95.116 18.4184 95.116 19.371C95.116 20.3237 95.4279 21.1706 96.0516 21.9116ZM93.7647 14.6077C95.0121 13.3375 96.5713 12.7024 98.4424 12.7024C100.314 12.7024 101.873 13.3375 103.12 14.6077C104.368 15.8779 104.991 17.3599 104.991 19.2652C104.991 21.0647 104.368 22.6524 103.12 23.9228C101.873 25.193 100.314 25.8281 98.4424 25.8281C96.5713 25.8281 95.0121 25.193 93.7647 23.9228C92.5172 22.6524 91.8936 21.1706 91.8936 19.2652C91.8936 17.4657 92.5172 15.8779 93.7647 14.6077Z" fill="#383851"/>
<path d="M106.655 13.0201H109.773V14.7137C110.709 13.4434 111.956 12.8083 113.62 12.8083C115.075 12.8083 116.323 13.3376 117.258 14.2903C118.194 15.2429 118.61 16.5131 118.61 17.9951V25.6164H115.491V18.6302C115.491 17.7834 115.178 17.1483 114.659 16.5131C114.139 15.9839 113.412 15.6664 112.58 15.6664C111.748 15.6664 111.021 15.9839 110.501 16.5131C109.981 17.0424 109.669 17.7834 109.669 18.6302V25.6164H106.551V13.0201H106.655Z" fill="#383851"/>
<path d="M129.836 17.995C129.628 17.254 129.212 16.6189 128.693 16.1955C128.069 15.772 127.446 15.4545 126.614 15.4545C125.782 15.4545 125.158 15.6663 124.535 16.1955C123.911 16.6189 123.599 17.254 123.391 17.995H129.836ZM122.04 14.6077C123.287 13.3375 124.846 12.7024 126.614 12.7024C128.693 12.7024 130.252 13.4434 131.499 14.9253C132.747 16.4071 133.266 18.2067 132.955 20.3238H123.391C123.599 21.0647 124.014 21.6998 124.535 22.2291C125.158 22.7583 125.886 22.97 126.822 22.97C127.549 22.97 128.173 22.7583 128.693 22.4408C129.212 22.1232 129.628 21.6998 130.044 21.0647L132.642 22.2291C132.123 23.2876 131.291 24.0286 130.252 24.6637C129.212 25.2988 128.069 25.6163 126.822 25.6163C124.951 25.6163 123.391 24.9812 122.143 23.711C120.897 22.4408 120.273 20.9589 120.273 19.0535C120.168 17.4657 120.792 15.8779 122.04 14.6077Z" fill="#383851"/>
<path d="M4.15787 21.2765C6.4448 21.2765 8.31594 19.3711 8.31594 17.0424C8.31594 12.3848 12.0582 8.57416 16.6321 8.57416H29.2103C31.4972 8.57416 33.3683 6.66881 33.3683 4.34006C33.3683 2.0113 31.4972 0.105957 29.2103 0.105957H16.7361C14.4491 0.105957 12.578 2.0113 12.578 4.34006C12.578 4.34006 12.578 4.34006 12.578 4.44591C12.578 4.44591 12.578 4.44591 12.578 4.55177C12.578 9.20927 8.8357 13.0199 4.26182 13.0199C1.97487 13.0199 0.103742 14.9253 0.103742 17.254C-0.000210322 19.3711 1.87092 21.2765 4.15787 21.2765Z" fill="#383851"/>
<path d="M29.3144 12.8083C27.0275 12.8083 25.1564 14.7137 25.1564 17.0424C25.1564 21.6999 21.414 25.5107 16.8402 25.5107H4.15807C1.87114 25.5107 0 27.416 0 29.7448C0 32.0735 1.87114 33.9788 4.15807 33.9788H16.6323C18.9193 33.9788 20.7904 32.0735 20.7904 29.7448C20.7904 25.0872 24.5327 21.2766 29.1066 21.2766C31.3934 21.2766 33.2645 19.3711 33.2645 17.0424C33.4725 14.7137 31.6013 12.8083 29.3144 12.8083Z" fill="#383851"/>
<path d="M144.404 12.702C144.404 15.692 146.926 16.628 148.304 16.966L151.164 17.772C152.152 18.058 153.998 18.604 153.998 20.762C153.998 22.686 152.516 23.986 149.942 23.986C147.524 23.986 145.756 22.842 145.704 20.736H144.04C144.274 23.648 146.614 25.312 149.864 25.312C153.296 25.312 155.584 23.518 155.584 20.632C155.584 17.59 152.958 16.654 151.892 16.368L148.98 15.562C147.966 15.276 145.99 14.756 145.99 12.546C145.99 10.674 147.498 9.4 149.76 9.4C152.074 9.4 153.582 10.674 153.582 12.598H155.194C155.194 9.842 153.01 8.022 149.812 8.022C146.536 8.022 144.404 9.894 144.404 12.702ZM157.55 19.358C157.55 22.66 160.046 25.312 163.556 25.312C167.092 25.312 169.588 22.66 169.588 19.358C169.588 16.03 167.118 13.352 163.556 13.352C160.02 13.352 157.55 16.03 157.55 19.358ZM159.084 19.358C159.084 16.68 160.93 14.678 163.556 14.678C166.208 14.678 168.054 16.706 168.054 19.358C168.054 21.984 166.208 23.986 163.556 23.986C160.93 23.986 159.084 21.984 159.084 19.358ZM176.863 8.334C177.175 8.334 177.513 8.36 177.695 8.412V7.164C177.357 7.112 176.967 7.086 176.655 7.086C174.627 7.086 173.405 8.022 173.405 10.466V13.664H171.351V14.886H173.405V25H174.861V14.886H177.695V13.664H174.861V10.83C174.861 9.738 174.887 8.334 176.863 8.334ZM185.155 13.664H182.867V10.622H181.385V13.664H179.123V14.886H181.385V25H182.867V14.886H185.155V13.664ZM186.633 13.664L190.403 25H191.911C193.939 18.864 194.823 16.03 194.927 15.614C195.031 16.03 195.915 18.864 197.943 25H199.425L203.247 13.664H201.713L200.075 18.578C199.191 21.23 198.931 22.088 198.671 23.076C197.943 20.658 195.811 14.184 195.707 13.846H194.147C194.043 14.184 191.937 20.554 191.157 23.076C190.897 22.036 190.637 21.178 189.597 18.006L188.167 13.664H186.633ZM214.764 13.664L214.634 15.952C213.932 14.366 212.216 13.352 210.084 13.352C206.912 13.352 204.624 15.718 204.624 19.332C204.624 22.946 206.86 25.312 210.006 25.312C212.216 25.312 213.906 24.168 214.608 22.608V25H215.986V13.664H214.764ZM210.266 23.986C207.796 23.986 206.132 22.14 206.132 19.332C206.132 16.576 207.77 14.678 210.318 14.678C212.788 14.678 214.426 16.446 214.426 19.254C214.426 22.14 212.762 23.986 210.266 23.986ZM224.429 13.534C222.947 13.534 221.751 14.262 221.361 15.51L221.127 13.664H219.879V25H221.387V18.474C221.387 15.9 222.921 14.47 225.547 14.886V13.664C225.261 13.586 224.845 13.534 224.429 13.534ZM237.863 21.724H236.381C235.913 23.128 234.431 24.064 232.611 24.064C230.167 24.064 228.503 22.4 228.399 19.826H237.759C237.811 19.488 237.837 19.228 237.837 18.656C237.837 15.562 235.705 13.352 232.533 13.352C229.309 13.352 226.943 15.692 226.943 19.306C226.943 22.894 229.205 25.312 232.611 25.312C235.185 25.312 237.317 23.908 237.863 21.724ZM228.399 18.656C228.477 16.212 230.167 14.626 232.533 14.626C234.795 14.626 236.329 16.212 236.355 18.656H228.399Z" fill="#383851"/>
</svg>
