<svg width="242" height="35" viewBox="0 0 242 35" fill="none" xmlns="http://www.w3.org/2000/svg">
<path d="M46.0508 8.46842H50.5207L55.5105 21.2766L60.3962 8.46842H64.7622V25.5107H61.5397V13.8669L56.8618 25.5107H53.8472L49.2734 13.8669V25.5107H46.0508V8.46842Z" fill="#383851"/>
<path d="M70.9994 26.0398L65.9058 13.0199H69.2322L72.6626 22.2291L75.9891 13.0199H79.3155L72.5586 30.3798H69.2322L70.9994 26.0398Z" fill="#383851"/>
<path d="M79.3154 22.5468L87.4237 11.5382H79.3154V8.46842H91.3739V11.5382L83.3696 22.5468H91.3739V25.5107H79.3154V22.5468Z" fill="#383851"/>
<path d="M96.0516 21.9116C96.6753 22.6524 97.5069 22.97 98.4424 22.97C99.3781 22.97 100.21 22.6524 100.833 21.9116C101.457 21.1706 101.769 20.3237 101.769 19.371C101.769 18.3126 101.457 17.4657 100.833 16.8306C100.21 16.1955 99.3781 15.772 98.4424 15.772C97.5069 15.772 96.6753 16.0896 96.0516 16.8306C95.4279 17.5716 95.116 18.4184 95.116 19.371C95.116 20.3237 95.4279 21.1706 96.0516 21.9116ZM93.7647 14.6077C95.0121 13.3375 96.5713 12.7024 98.4424 12.7024C100.314 12.7024 101.873 13.3375 103.12 14.6077C104.368 15.8779 104.991 17.3599 104.991 19.2652C104.991 21.0647 104.368 22.6524 103.12 23.9228C101.873 25.193 100.314 25.8281 98.4424 25.8281C96.5713 25.8281 95.0121 25.193 93.7647 23.9228C92.5172 22.6524 91.8936 21.1706 91.8936 19.2652C91.8936 17.4657 92.5172 15.8779 93.7647 14.6077Z" fill="#383851"/>
<path d="M106.655 13.0201H109.773V14.7137C110.709 13.4434 111.956 12.8083 113.62 12.8083C115.075 12.8083 116.323 13.3376 117.258 14.2903C118.194 15.2429 118.61 16.5131 118.61 17.9951V25.6164H115.491V18.6302C115.491 17.7834 115.178 17.1483 114.659 16.5131C114.139 15.9839 113.412 15.6664 112.58 15.6664C111.748 15.6664 111.021 15.9839 110.501 16.5131C109.981 17.0424 109.669 17.7834 109.669 18.6302V25.6164H106.551V13.0201H106.655Z" fill="#383851"/>
<path d="M129.836 17.995C129.628 17.254 129.212 16.6189 128.693 16.1955C128.069 15.772 127.446 15.4545 126.614 15.4545C125.782 15.4545 125.158 15.6663 124.535 16.1955C123.911 16.6189 123.599 17.254 123.391 17.995H129.836ZM122.04 14.6077C123.287 13.3375 124.846 12.7024 126.614 12.7024C128.693 12.7024 130.252 13.4434 131.499 14.9253C132.747 16.4071 133.266 18.2067 132.955 20.3238H123.391C123.599 21.0647 124.014 21.6998 124.535 22.2291C125.158 22.7583 125.886 22.97 126.822 22.97C127.549 22.97 128.173 22.7583 128.693 22.4408C129.212 22.1232 129.628 21.6998 130.044 21.0647L132.642 22.2291C132.123 23.2876 131.291 24.0286 130.252 24.6637C129.212 25.2988 128.069 25.6163 126.822 25.6163C124.951 25.6163 123.391 24.9812 122.143 23.711C120.897 22.4408 120.273 20.9589 120.273 19.0535C120.168 17.4657 120.792 15.8779 122.04 14.6077Z" fill="#383851"/>
<path d="M157.175 8.5741V25.6163H155.616V18.6301C155.616 16.4071 155.616 14.2902 155.72 11.9614L150.211 25.193H148.755L143.246 12.0673C143.349 14.6077 143.349 16.7247 143.349 18.6301V25.6163H141.791V8.5741H143.349L149.483 23.3934L155.616 8.5741H157.175Z" fill="#383851"/>
<path d="M168.61 23.182C169.337 22.3351 169.753 21.1708 169.753 19.6889C169.753 18.2069 169.337 17.1484 168.61 16.3016C167.882 15.4547 166.842 15.0314 165.595 15.0314C164.348 15.0314 163.308 15.4547 162.581 16.3016C161.853 17.1484 161.437 18.3128 161.437 19.7947C161.437 21.2767 161.853 22.3351 162.581 23.2879C163.308 24.1347 164.348 24.5581 165.595 24.5581C166.842 24.5581 167.779 24.0288 168.61 23.182ZM171.312 13.9728V25.5108H169.961V23.0761C169.545 23.923 169.026 24.5581 168.195 25.0873C167.363 25.6165 166.427 25.8283 165.387 25.8283C164.347 25.8283 163.412 25.6165 162.581 25.0873C161.749 24.5581 161.125 23.8171 160.71 22.9703C160.294 22.0176 159.982 20.9591 159.982 19.7947C159.982 18.6304 160.19 17.5718 160.71 16.6191C161.229 15.6665 161.853 14.9255 162.684 14.502C163.516 13.9728 164.452 13.7612 165.492 13.7612C166.531 13.7612 167.466 13.9728 168.298 14.502C169.13 15.0314 169.65 15.6665 170.066 16.4075L170.169 14.0787H171.312V13.9728Z" fill="#383851"/>
<path d="M180.357 13.9726V15.2429C180.044 15.2429 179.733 15.137 179.525 15.137C178.486 15.137 177.654 15.4546 177.03 16.0897C176.407 16.7248 176.199 17.6775 176.199 18.8419V25.5106H174.639V13.9726H175.886L176.094 15.878C176.302 15.2429 176.614 14.7136 177.238 14.396C177.757 14.0785 178.486 13.8668 179.213 13.8668C179.629 13.8668 180.044 13.8668 180.357 13.9726Z" fill="#383851"/>
<path d="M187.322 18.2068L191.272 25.5107H189.609L186.282 19.3711L183.682 22.1233V25.5107H182.227V7.30398H183.682V20.218L189.609 13.9727H191.375L187.322 18.2068Z" fill="#383851"/>
<path d="M202.186 19.0537C202.186 17.7835 201.771 16.8308 201.147 16.0898C200.419 15.3489 199.484 14.9255 198.34 14.9255C197.092 14.9255 196.157 15.3489 195.429 16.0898C194.702 16.8308 194.286 17.7835 194.181 19.0537H202.186ZM201.874 24.8757C200.939 25.5108 199.795 25.8283 198.444 25.8283C197.3 25.8283 196.365 25.6165 195.429 25.0873C194.494 24.5581 193.87 23.8171 193.454 22.9703C192.934 22.0176 192.726 20.9591 192.726 19.7947C192.726 18.6304 192.934 17.5718 193.454 16.6191C193.974 15.6665 194.597 15.0314 195.429 14.502C196.261 13.9728 197.197 13.7612 198.34 13.7612C199.379 13.7612 200.316 13.9728 201.147 14.502C201.979 14.9255 202.601 15.5606 203.017 16.4075C203.433 17.2543 203.641 18.2069 203.641 19.1596C203.641 19.583 203.641 20.0065 203.538 20.324H194.181C194.181 21.5942 194.597 22.6527 195.429 23.4996C196.157 24.2406 197.197 24.6639 198.444 24.6639C199.379 24.6639 200.108 24.4522 200.835 24.0288C201.563 23.6054 201.979 22.9702 202.186 22.3351H203.641C203.433 23.2879 202.809 24.2406 201.874 24.8757Z" fill="#383851"/>
<path d="M215.388 8.46841C215.596 8.68012 215.7 8.99767 215.7 9.31523C215.7 9.63279 215.596 9.95035 215.388 10.162C215.18 10.3738 214.869 10.4796 214.453 10.4796C214.14 10.4796 213.829 10.3738 213.621 10.162C213.413 9.95035 213.309 9.63279 213.309 9.31523C213.309 8.99767 213.413 8.68012 213.621 8.46841C213.829 8.25671 214.14 8.15086 214.453 8.15086C214.869 8.045 215.18 8.15086 215.388 8.46841ZM208.736 13.9727H215.285V25.5107H213.829V15.1372H208.839V25.5107H207.384V15.1372H205.097V13.8669H207.384V10.7972H208.839V13.9727H208.736Z" fill="#383851"/>
<path d="M227.135 14.8194C227.863 15.6663 228.279 16.8306 228.279 18.3126V25.4047H226.824V18.6301C226.824 16.1955 225.784 14.9253 223.808 14.9253C222.77 14.9253 221.938 15.2428 221.21 15.8779C220.586 16.513 220.275 17.3599 220.275 18.4184V25.5105H218.819V13.9726H220.067L220.275 15.7721C220.586 15.137 221.106 14.6077 221.834 14.1843C222.562 13.7609 223.289 13.5492 224.121 13.5492C225.264 13.655 226.303 14.0785 227.135 14.8194Z" fill="#383851"/>
<path d="M238.466 23.1818C239.089 22.7583 239.505 22.2291 239.921 21.594C240.234 20.9589 240.441 20.2179 240.441 19.3711C240.441 18.5242 240.234 17.8891 239.921 17.1481C239.61 16.513 239.089 15.9838 238.466 15.5604C237.842 15.137 237.115 14.9253 236.283 14.9253C235.036 14.9253 234.099 15.3487 233.372 16.1955C232.644 17.0424 232.333 18.1008 232.333 19.3711C232.333 20.6413 232.644 21.594 233.372 22.4408C234.099 23.2877 235.036 23.711 236.283 23.711C237.115 23.8169 237.842 23.6052 238.466 23.1818ZM242 13.9726V25.5105C242 26.5691 241.792 27.5218 241.273 28.3685C240.857 29.2154 240.129 29.8505 239.297 30.2739C238.466 30.6973 237.531 30.909 236.387 30.909C234.931 30.909 233.684 30.4856 232.749 29.7446C231.812 29.0036 231.19 27.9451 230.982 26.5691H232.436C232.644 27.5218 233.06 28.2628 233.788 28.792C234.515 29.3212 235.347 29.533 236.491 29.533C237.739 29.533 238.778 29.2154 239.505 28.3685C240.234 27.6275 240.545 26.6749 240.545 25.4047V22.5467C240.129 23.2877 239.505 23.9228 238.778 24.3461C237.946 24.7695 237.115 24.9813 236.075 24.9813C235.036 24.9813 234.099 24.7695 233.268 24.2403C232.436 23.711 231.813 23.0759 231.398 22.2291C230.982 21.3822 230.774 20.4296 230.774 19.3711C230.774 18.3126 230.982 17.3599 231.398 16.4073C231.813 15.5604 232.436 14.8194 233.268 14.2902C234.099 13.7609 235.036 13.5492 236.179 13.5492C237.218 13.5492 238.05 13.7609 238.881 14.1843C239.61 14.6077 240.234 15.2428 240.649 16.0897L240.753 13.8667H242V13.9726Z" fill="#383851"/>
<path d="M4.15787 21.2765C6.4448 21.2765 8.31594 19.3711 8.31594 17.0424C8.31594 12.3848 12.0582 8.57416 16.6321 8.57416H29.2103C31.4972 8.57416 33.3683 6.66881 33.3683 4.34006C33.3683 2.0113 31.4972 0.105957 29.2103 0.105957H16.7361C14.4491 0.105957 12.578 2.0113 12.578 4.34006C12.578 4.34006 12.578 4.34006 12.578 4.44591C12.578 4.44591 12.578 4.44591 12.578 4.55177C12.578 9.20927 8.8357 13.0199 4.26182 13.0199C1.97487 13.0199 0.103742 14.9253 0.103742 17.254C-0.000210322 19.3711 1.87092 21.2765 4.15787 21.2765Z" fill="#383851"/>
<path d="M29.3144 12.8083C27.0275 12.8083 25.1564 14.7137 25.1564 17.0424C25.1564 21.6999 21.414 25.5107 16.8402 25.5107H4.15807C1.87114 25.5107 0 27.416 0 29.7448C0 32.0735 1.87114 33.9788 4.15807 33.9788H16.6323C18.9193 33.9788 20.7904 32.0735 20.7904 29.7448C20.7904 25.0872 24.5327 21.2766 29.1066 21.2766C31.3934 21.2766 33.2645 19.3711 33.2645 17.0424C33.4725 14.7137 31.6013 12.8083 29.3144 12.8083Z" fill="#383851"/>
</svg>
