<svg width="177" height="36" viewBox="0 0 177 36" fill="none" xmlns="http://www.w3.org/2000/svg">
<path d="M154 26.8706H155.92L158.036 21.2703H167.897L169.948 26.8706H171.998L164.187 6H161.778L154 26.8706ZM158.622 19.6424L161.062 13.1956C162.071 10.5258 163.048 7.85588 163.048 7.85588L164.935 13.1631L167.311 19.6424H158.622ZM176.917 26.8706V6H174.964V26.8706H176.917Z" fill="#252C39"/>
<g clip-path="url(#clip0_1_137)">
<mask id="mask0_1_137" style="mask-type:luminance" maskUnits="userSpaceOnUse" x="0" y="0" width="242" height="36">
<path d="M0 0H242V36H0V0Z" fill="white"/>
</mask>
<g mask="url(#mask0_1_137)">
<path d="M49.6649 9.00562H54.4867L59.8356 22.4748L65.1957 9.00562H69.8381V26.9943H66.3843V14.6887L61.3383 26.9943H58.1424L53.1187 14.711V26.9943H49.6649V9.00562ZM76.5551 27.4866L71.0717 13.7601H74.6824L78.3379 23.504L81.9936 13.7601H85.5707L78.2371 32.1406H74.6824L76.5551 27.4866Z" fill="#252C39"/>
<path d="M85.5371 23.8621L94.2725 12.1379H85.5371V9.00564H98.6233V12.1378L89.888 23.8619H98.6233V26.9942H85.5371V23.8621ZM103.625 23.1013C104.309 23.8285 105.172 24.1976 106.204 24.1976C107.235 24.1976 108.099 23.8285 108.794 23.1013C109.489 22.3742 109.837 21.4568 109.837 20.3604C109.837 19.2641 109.489 18.3803 108.794 17.6533C108.099 16.9261 107.235 16.5568 106.204 16.5568C105.172 16.5568 104.32 16.9261 103.625 17.6533C102.941 18.3803 102.593 19.2865 102.593 20.3604C102.593 21.4345 102.941 22.3742 103.625 23.1013ZM101.146 15.4829C102.503 14.1628 104.185 13.5029 106.192 13.5029C108.2 13.5029 109.882 14.1628 111.239 15.4829C112.595 16.803 113.279 18.4251 113.279 20.3717C113.279 22.3182 112.595 23.9627 111.239 25.2828C109.882 26.6028 108.2 27.2628 106.192 27.2628C104.185 27.2628 102.503 26.6028 101.146 25.2828C99.7895 23.9627 99.1056 22.3295 99.1056 20.3717C99.1056 18.4138 99.7784 16.803 101.146 15.4829ZM115.018 13.7601H118.37V15.5053C119.368 14.1741 120.759 13.5027 122.542 13.5027C124.123 13.5027 125.413 14.0174 126.422 15.0465C127.431 16.0758 127.924 17.3846 127.924 18.9732V26.9944H124.572V19.5662C124.572 18.6712 124.28 17.944 123.708 17.3846C123.136 16.8141 122.385 16.5345 121.477 16.5345C120.568 16.5345 119.817 16.8141 119.234 17.3846C118.651 17.9553 118.359 18.6825 118.359 19.5662V26.9944H115.006V13.7601H115.018ZM140.057 19.0068C139.833 18.2238 139.407 17.586 138.79 17.0939C138.174 16.6016 137.445 16.3667 136.604 16.3667C135.763 16.3667 135.034 16.6128 134.417 17.1162C133.8 17.6084 133.385 18.2461 133.184 19.0181H140.057V19.0068ZM131.647 15.4829C132.982 14.1628 134.63 13.5029 136.604 13.5029C138.802 13.5029 140.573 14.297 141.919 15.8856C143.265 17.4742 143.78 19.3648 143.455 21.5574H133.128C133.329 22.3742 133.755 23.0566 134.395 23.5936C135.034 24.1194 135.841 24.3879 136.839 24.3879C137.579 24.3879 138.241 24.2201 138.835 23.8732C139.429 23.5265 139.9 23.0566 140.237 22.4637L142.995 23.6943C142.39 24.7682 141.549 25.6407 140.461 26.2896C139.374 26.9385 138.129 27.2628 136.738 27.2628C134.731 27.2628 133.049 26.6028 131.692 25.2828C130.335 23.9627 129.651 22.3295 129.651 20.3717C129.651 18.4138 130.313 16.803 131.647 15.4829ZM4.5079 22.4973C6.9972 22.4973 9.01565 20.4835 9.01565 18C9.01565 13.0329 13.0526 8.99436 18.0314 8.99436H31.5662C34.0556 8.99436 36.0741 6.9808 36.0741 4.49725C36.0741 2.01356 34.0668 0 31.5775 0H18.0426C15.5757 0 13.5684 1.98 13.5347 4.44127V4.55308C13.5011 9.49775 9.47548 13.5027 4.5079 13.5027C2.01845 13.5027 0 15.5166 0 18C0 20.4834 2.01845 22.4973 4.5079 22.4973ZM31.5775 13.5027C29.088 13.5027 27.0696 15.5165 27.0696 18C27.0696 22.9671 23.0438 26.9944 18.0651 27.0056H4.5079C2.01845 27.0056 0 29.0192 0 31.5027C0 33.9863 2.01845 36 4.5079 36H18.0426C20.5321 36 22.5505 33.9863 22.5505 31.5027C22.5505 26.5357 26.5874 22.4973 31.5662 22.4973C34.0556 22.4973 36.0741 20.4835 36.0741 18C36.0741 15.5165 34.0556 13.5027 31.5662 13.5027H31.5775ZM172.588 8.97208V26.9832H170.928V19.5326C170.928 16.5232 170.962 14.89 171.018 12.496L165.097 26.4798H163.46L157.507 12.5519C157.595 14.9459 157.64 16.6352 157.64 19.5326V26.9832H155.948V8.94966H157.64L164.268 24.5892L170.861 8.94966L172.577 8.98322L172.588 8.97208ZM187.76 14.711V26.9721H186.268V24.3879C185.506 26.0771 183.678 27.3188 181.278 27.3188C177.87 27.3188 175.436 24.757 175.436 20.8527C175.436 16.9484 177.914 14.3866 181.358 14.3866C183.668 14.3866 185.528 15.4829 186.291 17.1946L186.426 14.7222H187.749L187.76 14.711ZM186.066 20.7632C186.066 17.7204 184.295 15.8074 181.615 15.8074C178.935 15.8074 177.073 17.8658 177.073 20.8416C177.073 23.8172 178.878 25.8758 181.558 25.8758C184.238 25.8758 186.066 23.8732 186.066 20.752V20.7632ZM190.294 23.683H191.842C191.954 25.1709 193.254 26.0211 195.082 26.0211C196.91 26.0211 198.155 25.2044 198.155 23.7725C198.155 22.2288 196.832 21.8036 195.901 21.6358L193.614 21.1323C191.472 20.6513 190.62 19.4208 190.62 17.8993C190.62 15.7849 192.392 14.3866 195.015 14.3866C197.638 14.3866 199.5 15.8745 199.557 18.0671H198.009C197.954 16.5232 196.742 15.6731 195.015 15.6731C193.288 15.6731 192.257 16.4003 192.257 17.7875C192.257 19.253 193.524 19.5886 194.308 19.7564L196.843 20.3157C198.894 20.7967 199.803 22.0833 199.803 23.6607C199.803 25.9093 197.975 27.3188 195.072 27.3188C192.167 27.3188 190.395 25.8869 190.284 23.6943L190.294 23.683ZM207.776 16.0311H205.298V26.9721H203.695V16.0311H201.239V14.711H203.695V11.4221H205.298V14.7109H207.776V16.0311ZM215.054 27.3188C211.365 27.3188 208.909 24.701 208.909 20.8191C208.909 16.9372 211.476 14.3754 214.975 14.3754C218.475 14.3754 220.728 16.7694 220.728 20.1144C220.728 20.7296 220.705 21.0094 220.638 21.3785H210.49C210.603 24.1641 212.408 25.9652 215.054 25.9652C217.027 25.9652 218.631 24.9472 219.146 23.4369H220.751C220.156 25.7974 217.846 27.3188 215.054 27.3188ZM219.112 20.1144C219.079 17.4742 217.419 15.7514 214.964 15.7514C212.509 15.7514 210.569 17.463 210.479 20.1144H219.112ZM229.542 14.711V16.0311C226.694 15.5836 225.034 17.1275 225.034 19.913V26.9721H223.397V14.711H224.754L225.011 16.7135C225.438 15.3598 226.727 14.5768 228.341 14.5768C228.791 14.5768 229.239 14.6326 229.553 14.7222L229.542 14.711ZM242 14.711L236.394 29.5674C235.519 31.7377 234.364 32.5208 232.445 32.5208C231.909 32.5208 231.202 32.4313 230.752 32.297V30.9434C230.977 30.9994 231.459 31.1449 232.188 31.1449C233.792 31.1449 234.387 30.496 234.868 29.2318L235.407 27.7664L230.159 14.711H231.852L236.169 25.708L240.284 14.711H242Z" fill="#252C39"/>
</g>
</g>
<defs>
<clipPath id="clip0_1_137">
<rect width="148" height="36" fill="white"/>
</clipPath>
</defs>
</svg>
