<svg width="128" height="33" viewBox="0 0 128 33" fill="none" xmlns="http://www.w3.org/2000/svg">
<path d="M44.2998 8.10001H48.5998L53.3998 20.1L58.0998 8.10001H62.2998V24.2H59.1998V13.2L54.6998 24.2H51.7998L47.3998 13.2V24.2H44.2998V8.10001Z" fill="#fff"/>
<path d="M68.2999 24.6L63.3999 12.3H66.5999L69.8999 21L73.0999 12.3H76.2999L69.7999 28.8H66.5999L68.2999 24.6Z" fill="#fff"/>
<path d="M76.2998 21.4L84.0998 10.9H76.2998V8.10001H87.9998V10.9L80.1998 21.4H87.9998V24.2H76.2998V21.4Z" fill="#fff"/>
<path d="M92.3999 20.7C92.9999 21.3 93.7999 21.7 94.6999 21.7C95.5999 21.7 96.3999 21.4 96.9999 20.7C97.5999 20 97.8999 19.2 97.8999 18.3C97.8999 17.3 97.5999 16.5 96.9999 15.9C96.3999 15.3 95.5999 14.9 94.6999 14.9C93.7999 14.9 92.9999 15.2 92.3999 15.9C91.7999 16.6 91.4999 17.4 91.4999 18.3C91.4999 19.2 91.7999 20 92.3999 20.7ZM90.1999 13.9C91.3999 12.7 92.8999 12.1 94.6999 12.1C96.4999 12.1 97.9999 12.7 99.1999 13.9C100.4 15.1 101 16.5 101 18.3C101 20 100.4 21.5 99.1999 22.7C97.9999 23.9 96.4999 24.5 94.6999 24.5C92.8999 24.5 91.3999 23.9 90.1999 22.7C88.9999 21.5 88.3999 20.1 88.3999 18.3C88.3999 16.5 88.9999 15 90.1999 13.9Z" fill="#fff"/>
<path d="M102.6 12.3H105.6V13.9C106.5 12.7 107.7 12.1 109.3 12.1C110.7 12.1 111.9 12.6 112.8 13.5C113.7 14.4 114.1 15.6 114.1 17V24.2H111.1V17.6C111.1 16.8 110.8 16.2 110.3 15.6C109.8 15.1 109.1 14.8 108.3 14.8C107.5 14.8 106.8 15.1 106.3 15.6C105.8 16.1 105.5 16.8 105.5 17.6V24.2H102.5V12.3H102.6Z" fill="#fff"/>
<path d="M124.9 17C124.7 16.3 124.3 15.7 123.8 15.3C123.2 14.9 122.6 14.6 121.8 14.6C121 14.6 120.4 14.8 119.8 15.3C119.2 15.7 118.9 16.3 118.7 17H124.9ZM117.4 13.9C118.6 12.7 120.1 12.1 121.8 12.1C123.8 12.1 125.3 12.8 126.5 14.2C127.7 15.6 128.2 17.3 127.9 19.3H118.7C118.9 20 119.3 20.6 119.8 21.1C120.4 21.6 121.1 21.8 122 21.8C122.7 21.8 123.3 21.6 123.8 21.3C124.3 21 124.7 20.6 125.1 20L127.6 21.1C127.1 22.1 126.3 22.8 125.3 23.4C124.3 24 123.2 24.3 122 24.3C120.2 24.3 118.7 23.7 117.5 22.5C116.3 21.3 115.7 19.9 115.7 18.1C115.6 16.5 116.2 15 117.4 13.9Z" fill="#fff"/>
<path d="M4.00017 20.1C6.20017 20.1 8.00017 18.3 8.00017 16.1C8.00017 11.7 11.6002 8.10001 16.0002 8.10001H28.1002C30.3002 8.10001 32.1002 6.30001 32.1002 4.10001C32.1002 1.90001 30.3002 0.100006 28.1002 0.100006H16.1002C13.9002 0.100006 12.1002 1.90001 12.1002 4.10001C12.1002 4.10001 12.1002 4.10001 12.1002 4.20001C12.1002 4.20001 12.1002 4.20001 12.1002 4.30001C12.1002 8.70001 8.50017 12.3 4.10017 12.3C1.90017 12.3 0.100167 14.1 0.100167 16.3C0.000166543 18.3 1.80017 20.1 4.00017 20.1Z" fill="#fff"/>
<path d="M28.2 12.1C26 12.1 24.2 13.9 24.2 16.1C24.2 20.5 20.6 24.1 16.2 24.1H4C1.8 24.1 0 25.9 0 28.1C0 30.3 1.8 32.1 4 32.1H16C18.2 32.1 20 30.3 20 28.1C20 23.7 23.6 20.1 28 20.1C30.2 20.1 32 18.3 32 16.1C32.2 13.9 30.4 12.1 28.2 12.1Z" fill="#fff"/>
</svg>
