<svg xmlns="http://www.w3.org/2000/svg" xmlns:xlink="http://www.w3.org/1999/xlink" width="103" height="131.4"><symbol id="facebook" viewBox="0 0 17.4 17.4"><path d="M9.7 6.7h3v3h-3v7h-3v-7h-3v-3h3V5.5c0-1.2.4-2.7 1.1-3.5.7-.8 1.7-1.2 2.8-1.2h2.1v3h-2.1c-.5 0-.9.4-.9.9v2z"/></symbol><use xlink:href="#facebook" width="17.4" height="17.4"/><symbol fill="none" id="google" viewBox="0 0 103 35"><path d="M43.832 17.949c0 4.858-3.783 8.438-8.426 8.438-4.643 0-8.425-3.58-8.425-8.438 0-4.893 3.782-8.438 8.425-8.438 4.643 0 8.426 3.545 8.426 8.438Zm-3.689 0c0-3.036-2.192-5.113-4.737-5.113s-4.737 2.077-4.737 5.113c0 3.005 2.192 5.113 4.737 5.113s4.737-2.112 4.737-5.113Zm21.865 0c0 4.858-3.783 8.438-8.425 8.438-4.643 0-8.426-3.58-8.426-8.438 0-4.889 3.783-8.438 8.426-8.438 4.642 0 8.425 3.545 8.425 8.438Zm-3.688 0c0-3.036-2.193-5.113-4.737-5.113-2.545 0-4.737 2.077-4.737 5.113 0 3.005 2.192 5.113 4.737 5.113 2.544 0 4.737-2.112 4.737-5.113Zm21.107-7.929v15.15c0 6.231-3.658 8.776-7.982 8.776-4.07 0-6.52-2.735-7.445-4.972l3.211-1.343c.572 1.373 1.973 2.994 4.23 2.994 2.768 0 4.484-1.716 4.484-4.946v-1.213h-.129c-.826 1.023-2.416 1.917-4.423 1.917-4.2 0-8.047-3.675-8.047-8.404 0-4.763 3.848-8.468 8.047-8.468 2.003 0 3.594.894 4.423 1.887h.129v-1.374h3.502v-.003Zm-3.241 7.96c0-2.972-1.973-5.144-4.484-5.144-2.544 0-4.676 2.172-4.676 5.143 0 2.941 2.132 5.083 4.677 5.083 2.51 0 4.483-2.142 4.483-5.083Zm9.016-16.839V25.87h-3.597V1.14h3.597ZM99.22 20.726l2.864 1.918c-.924 1.373-3.151 3.74-6.998 3.74-4.772 0-8.335-3.706-8.335-8.439 0-5.018 3.594-8.438 7.922-8.438 4.358 0 6.49 3.485 7.187 5.368l.383.959-11.228 4.672c.86 1.692 2.196 2.556 4.07 2.556 1.879 0 3.181-.928 4.136-2.336Zm-8.81-3.036 7.505-3.13c-.412-1.055-1.654-1.789-3.116-1.789-1.875 0-4.484 1.663-4.389 4.92Zm-77.047-1.936v-3.58h12.008c.118.624.178 1.362.178 2.16 0 2.687-.73 6.008-3.086 8.374-2.291 2.397-5.218 3.675-9.096 3.675-7.187 0-13.23-5.881-13.23-13.102C.136 6.061 6.18.18 13.366.18c3.976 0 6.809 1.567 8.937 3.61L19.79 6.315c-1.526-1.438-3.594-2.556-6.427-2.556-5.248 0-9.353 4.25-9.353 9.522 0 5.273 4.105 9.522 9.353 9.522 3.405 0 5.343-1.373 6.586-2.62 1.007-1.013 1.67-2.458 1.93-4.433l-8.516.004Z" fill="#A9B0C0"/></symbol><use fill="none" xlink:href="#google" y="17.4" width="103" height="35"/><symbol fill="none" id="instagram" viewBox="0 0 18 19"><path d="M13.805 6.133a1.08 1.08 0 1 0-.001-2.16 1.08 1.08 0 0 0 0 2.16ZM9 5.236a4.622 4.622 0 1 0 0 9.243 4.622 4.622 0 0 0 0-9.243Zm0 7.621a3 3 0 1 1 0-6 3 3 0 0 1 0 6Z" fill="#3361FF"/><path d="M9 2.479c2.403 0 2.688.009 3.637.052a4.98 4.98 0 0 1 1.67.31 2.98 2.98 0 0 1 1.71 1.708c.198.536.302 1.1.309 1.671.043.95.052 1.234.052 3.638s-.009 2.687-.052 3.636a4.982 4.982 0 0 1-.31 1.67 2.98 2.98 0 0 1-1.708 1.71c-.535.198-1.1.302-1.671.31-.949.043-1.234.052-3.637.052s-2.688-.01-3.637-.053a4.982 4.982 0 0 1-1.67-.31 2.98 2.98 0 0 1-1.71-1.708 4.98 4.98 0 0 1-.309-1.671c-.043-.949-.052-1.234-.052-3.637s.008-2.688.052-3.637c.007-.57.112-1.135.31-1.67a2.981 2.981 0 0 1 1.708-1.71 4.981 4.981 0 0 1 1.671-.309C6.312 2.488 6.597 2.48 9 2.48ZM9 .857c-2.444 0-2.751.01-3.711.054a6.605 6.605 0 0 0-2.184.419A4.602 4.602 0 0 0 .472 3.962a6.605 6.605 0 0 0-.418 2.185C.011 7.107 0 7.412 0 9.857c0 2.445.01 2.751.054 3.711.015.747.157 1.485.418 2.184a4.602 4.602 0 0 0 2.633 2.633c.7.262 1.438.403 2.185.418.96.044 1.266.054 3.71.054s2.751-.01 3.711-.054a6.606 6.606 0 0 0 2.185-.418 4.602 4.602 0 0 0 2.632-2.633c.262-.7.403-1.438.418-2.185.043-.96.054-1.265.054-3.71 0-2.445-.01-2.75-.054-3.71a6.607 6.607 0 0 0-.419-2.185 4.6 4.6 0 0 0-2.632-2.632A6.605 6.605 0 0 0 12.71.912C11.75.867 11.445.857 9 .857Z" fill="#3361FF"/></symbol><use fill="none" xlink:href="#instagram" y="52.4" width="18" height="19"/><symbol fill="none" id="linkedin" viewBox="0 0 17 16"><path d="M3.568 1.779c0 .471-.189.923-.523 1.256a1.787 1.787 0 0 1-2.523 0A1.775 1.775 0 0 1 .523.52a1.787 1.787 0 0 1 2.523.001c.334.334.522.786.522 1.258Zm.053 3.093H.054V16H3.62V4.872Zm5.637 0h-3.55V16h3.514v-5.84c0-3.253 4.255-3.555 4.255 0V16H17V8.951c0-5.484-6.297-5.28-7.778-2.586l.036-1.493Z" fill="#3361FF"/></symbol><use fill="none" xlink:href="#linkedin" y="71.4" width="17" height="16"/><symbol fill="none" id="share" viewBox="0 0 14 14"><path d="M8.03 5.97a2.912 2.912 0 0 0-4.118 0l-2.06 2.06a2.912 2.912 0 1 0 4.119 4.117L7 11.118"/><path d="M5.97 8.03a2.912 2.912 0 0 0 4.118 0l2.06-2.06a2.912 2.912 0 0 0-4.119-4.117L7 2.882"/></symbol><use fill="none" xlink:href="#share" y="87.4" width="14" height="14"/><symbol fill="none" id="twitter" viewBox="0 0 18 15"><path d="M5.662 15a10.215 10.215 0 0 0 4.03-.802 10.427 10.427 0 0 0 3.418-2.334 10.731 10.731 0 0 0 2.275-3.504 10.94 10.94 0 0 0 .782-4.134v-.495A7.804 7.804 0 0 0 18 1.776a7.47 7.47 0 0 1-2.12.596A3.81 3.81 0 0 0 17.518.274a7.166 7.166 0 0 1-2.34.923A3.671 3.671 0 0 0 13.082.051a3.618 3.618 0 0 0-2.343.396 3.755 3.755 0 0 0-1.625 1.776 3.882 3.882 0 0 0-.237 2.423A10.261 10.261 0 0 1 4.662 3.5 10.519 10.519 0 0 1 1.268.694a3.868 3.868 0 0 0-.396 2.749 3.786 3.786 0 0 0 1.542 2.285 3.588 3.588 0 0 1-1.637-.47V5.3c-.005.87.28 1.714.81 2.393a3.695 3.695 0 0 0 2.095 1.341 3.617 3.617 0 0 1-1.637.067 3.78 3.78 0 0 0 1.31 1.853 3.63 3.63 0 0 0 2.11.74 7.292 7.292 0 0 1-4.59 1.678A7.803 7.803 0 0 1 0 13.297a10.258 10.258 0 0 0 5.662 1.678" fill="#3361FF"/></symbol><use fill="none" xlink:href="#twitter" y="101.4" width="18" height="15"/><symbol fill="none" id="youtube" viewBox="0 0 21 15"><path d="M20.865 3.312c0-1.758-1.358-3.172-3.035-3.172C15.556.04 13.24 0 10.87 0h-.738C7.77 0 5.448.04 3.175.14 1.502.14.144 1.563.144 3.32A55.343 55.343 0 0 0 0 7.492a57.7 57.7 0 0 0 .14 4.175c0 1.758 1.358 3.184 3.031 3.184 2.388.105 4.837.152 7.327.148a153.54 153.54 0 0 0 7.326-.148c1.677 0 3.035-1.426 3.035-3.184a56.87 56.87 0 0 0 .14-4.18 54.11 54.11 0 0 0-.134-4.175ZM8.492 11.323V3.648l5.948 3.836-5.948 3.84Z" fill="#3361FF"/></symbol><use fill="none" xlink:href="#youtube" y="116.4" width="21" height="15"/></svg>