<svg xmlns="http://www.w3.org/2000/svg" xmlns:xlink="http://www.w3.org/1999/xlink" width="103" height="109.3"><symbol id="facebook" viewBox="0 0 17.4 17.4"><path d="M9.7 6.7h3v3h-3v7h-3v-7h-3v-3h3V5.5c0-1.2.4-2.7 1.1-3.5.7-.8 1.7-1.2 2.8-1.2h2.1v3h-2.1c-.5 0-.9.4-.9.9v2z"/></symbol><use xlink:href="#facebook" width="17.4" height="17.4"/><symbol fill="none" id="google" viewBox="0 0 103 35"><path d="M43.832 17.949c0 4.858-3.783 8.438-8.426 8.438-4.643 0-8.425-3.58-8.425-8.438 0-4.893 3.782-8.438 8.425-8.438 4.643 0 8.426 3.545 8.426 8.438Zm-3.689 0c0-3.036-2.192-5.113-4.737-5.113s-4.737 2.077-4.737 5.113c0 3.005 2.192 5.113 4.737 5.113s4.737-2.112 4.737-5.113Zm21.865 0c0 4.858-3.783 8.438-8.425 8.438-4.643 0-8.426-3.58-8.426-8.438 0-4.889 3.783-8.438 8.426-8.438 4.642 0 8.425 3.545 8.425 8.438Zm-3.688 0c0-3.036-2.193-5.113-4.737-5.113-2.545 0-4.737 2.077-4.737 5.113 0 3.005 2.192 5.113 4.737 5.113 2.544 0 4.737-2.112 4.737-5.113Zm21.107-7.929v15.15c0 6.231-3.658 8.776-7.982 8.776-4.07 0-6.52-2.735-7.445-4.972l3.211-1.343c.572 1.373 1.973 2.994 4.23 2.994 2.768 0 4.484-1.716 4.484-4.946v-1.213h-.129c-.826 1.023-2.416 1.917-4.423 1.917-4.2 0-8.047-3.675-8.047-8.404 0-4.763 3.848-8.468 8.047-8.468 2.003 0 3.594.894 4.423 1.887h.129v-1.374h3.502v-.003Zm-3.241 7.96c0-2.972-1.973-5.144-4.484-5.144-2.544 0-4.676 2.172-4.676 5.143 0 2.941 2.132 5.083 4.677 5.083 2.51 0 4.483-2.142 4.483-5.083Zm9.016-16.839V25.87h-3.597V1.14h3.597ZM99.22 20.726l2.864 1.918c-.924 1.373-3.151 3.74-6.998 3.74-4.772 0-8.335-3.706-8.335-8.439 0-5.018 3.594-8.438 7.922-8.438 4.358 0 6.49 3.485 7.187 5.368l.383.959-11.228 4.672c.86 1.692 2.196 2.556 4.07 2.556 1.879 0 3.181-.928 4.136-2.336Zm-8.81-3.036 7.505-3.13c-.412-1.055-1.654-1.789-3.116-1.789-1.875 0-4.484 1.663-4.389 4.92Zm-77.047-1.936v-3.58h12.008c.118.624.178 1.362.178 2.16 0 2.687-.73 6.008-3.086 8.374-2.291 2.397-5.218 3.675-9.096 3.675-7.187 0-13.23-5.881-13.23-13.102C.136 6.061 6.18.18 13.366.18c3.976 0 6.809 1.567 8.937 3.61L19.79 6.315c-1.526-1.438-3.594-2.556-6.427-2.556-5.248 0-9.353 4.25-9.353 9.522 0 5.273 4.105 9.522 9.353 9.522 3.405 0 5.343-1.373 6.586-2.62 1.007-1.013 1.67-2.458 1.93-4.433l-8.516.004Z" fill="#A9B0C0"/></symbol><use fill="none" xlink:href="#google" y="17.4" width="103" height="35"/><symbol id="instagram" viewBox="0 0 18.3 18.9"><path d="M13.4 6.2c.5 0 .9-.4.9-.9s-.4-.9-.9-.9-.9.4-.9.9.4.9.9.9zm-4.1-.7c-.8 0-1.6.2-2.2.7-.7.4-1.2 1-1.5 1.7-.3.7-.4 1.5-.2 2.3.2.8.5 1.5 1.1 2 .6.6 1.3.9 2 1.1.8.2 1.6.1 2.3-.2.7-.3 1.4-.8 1.8-1.5.4-.7.7-1.4.7-2.2 0-1.1-.4-2.1-1.2-2.8-.8-.7-1.8-1.1-2.8-1.1zm0 6.5c-.5 0-1-.2-1.4-.4-.4-.3-.8-.7-1-1.2-.2-.5-.2-1-.1-1.5s.3-1 .7-1.3c.3-.3.8-.6 1.3-.7.5-.1 1 0 1.5.1.5.2.9.5 1.2 1 .3.4.4.9.4 1.4 0 .7-.3 1.3-.8 1.8-.5.6-1.1.8-1.8.8z"/><path d="M9.3 3.1h3.1c.5 0 1 .1 1.4.3.3.1.6.3.9.6s.5.6.6.9c.2.5.3.9.3 1.4v6.2c0 .5-.1 1-.3 1.4-.1.3-.3.6-.6.9-.3.3-.6.5-.9.6-.5.2-.9.3-1.4.3H6.2c-.5 0-1-.1-1.4-.3-.3-.1-.6-.3-.9-.6-.3-.3-.5-.6-.6-.9-.3-.3-.3-.8-.3-1.3V6.4c0-.5.1-1 .3-1.4 0-.5.2-.8.5-1 .3-.3.6-.5.9-.6.5-.2.9-.3 1.4-.3h3.2zm0-1.4H6.1c-.6 0-1.3.1-1.9.4-.5.2-1 .5-1.4.9-.4.4-.7.9-.9 1.4-.2.6-.3 1.2-.3 1.9v6.4c0 .6.1 1.3.4 1.9.2.5.5 1 .9 1.4.4.4.9.7 1.4.9.6.2 1.2.3 1.9.4h6.4c.6 0 1.3-.1 1.9-.4.5-.2 1-.5 1.4-.9.4-.4.7-.9.9-1.4.2-.6.3-1.2.4-1.9V6.3c0-.6-.1-1.3-.4-1.9-.2-.5-.5-1-.9-1.4-.4-.4-.9-.7-1.4-.9-.6-.2-1.2-.3-1.9-.4H9.3z"/></symbol><use xlink:href="#instagram" y="52.4" width="18.3" height="18.9"/><symbol id="linkedin" viewBox="0 0 15 10"><path d="M5.316.541v9.105h2.827V5.143c0-1.188.223-2.338 1.696-2.338 1.453 0 1.471 1.358 1.471 2.413v4.428h2.828V4.654c0-2.453-.528-4.338-3.394-4.338-1.377 0-2.299.756-2.676 1.47h-.039V.541H5.316Zm-4.607 0h2.832v9.105H.709V.54Z"/></symbol><use xlink:href="#linkedin" y="71.3" width="15" height="10"/><symbol fill="none" id="share" viewBox="0 0 14 14"><path d="M8.03 5.97a2.912 2.912 0 0 0-4.118 0l-2.06 2.06a2.912 2.912 0 1 0 4.119 4.117L7 11.118"/><path d="M5.97 8.03a2.912 2.912 0 0 0 4.118 0l2.06-2.06a2.912 2.912 0 0 0-4.119-4.117L7 2.882"/></symbol><use fill="none" xlink:href="#share" y="81.3" width="14" height="14"/><symbol id="twitter" viewBox="0 0 16 14"><path d="M5.381 13.465a8.97 8.97 0 0 0 9.028-9.029v-.414a6.61 6.61 0 0 0 1.575-1.639 6.547 6.547 0 0 1-1.82.5 3.206 3.206 0 0 0 1.405-1.758 6.25 6.25 0 0 1-2.01.773 3.178 3.178 0 0 0-5.414 2.89 8.993 8.993 0 0 1-6.54-3.312 3.171 3.171 0 0 0 .985 4.22A3.143 3.143 0 0 1 1.184 5.3v.035a3.185 3.185 0 0 0 2.496 3.13 3.2 3.2 0 0 1-1.407.056 3.171 3.171 0 0 0 2.94 2.172A6.363 6.363 0 0 1 1.268 12.1a6.865 6.865 0 0 1-.752-.063 8.979 8.979 0 0 0 4.865 1.406"/></symbol><use xlink:href="#twitter" y="95.3" width="16" height="14"/></svg>